<svg width="86" height="28" viewBox="0 0 86 28" fill="none" xmlns="http://www.w3.org/2000/svg">
<path d="M7.61062 24C6.0295 24 4.81416 23.5575 3.9646 22.6726C3.12684 21.7758 2.70796 20.5428 2.70796 18.9735V8.83186H0.849557C0.613569 8.83186 0.412979 8.75516 0.247788 8.60177C0.0825959 8.44838 0 8.21829 0 7.9115V6.17699L2.92035 5.69912L3.84071 0.743362C3.8997 0.507374 4.0118 0.324483 4.17699 0.194689C4.34218 0.0648963 4.55457 0 4.81416 0H7.07965V5.71681H11.9292V8.83186H7.07965V18.6726C7.07965 19.2389 7.21534 19.6814 7.48673 20C7.76991 20.3186 8.15339 20.4779 8.63717 20.4779C8.90855 20.4779 9.13274 20.4484 9.30973 20.3894C9.49853 20.3186 9.65782 20.2478 9.78761 20.177C9.9292 20.1062 10.0531 20.0413 10.1593 19.9823C10.2655 19.9115 10.3717 19.8761 10.4779 19.8761C10.6077 19.8761 10.7139 19.9115 10.7965 19.9823C10.8791 20.0413 10.9676 20.1357 11.0619 20.2655L12.3717 22.3894C11.7345 22.9204 11.0029 23.3215 10.177 23.5929C9.35103 23.8643 8.49557 24 7.61062 24Z" fill="#1F1F33"/>
<path d="M26.289 12.5487C26.289 11.9823 26.2064 11.4513 26.0412 10.9558C25.8878 10.4484 25.6518 10.0059 25.3332 9.62832C25.0147 9.25074 24.6076 8.95575 24.112 8.74336C23.6282 8.51917 23.0619 8.40708 22.4129 8.40708C21.1503 8.40708 20.1533 8.76696 19.4217 9.48673C18.702 10.2065 18.2418 11.2271 18.0412 12.5487H26.289ZM17.9527 15.1858C18.0235 16.118 18.1887 16.9263 18.4483 17.6106C18.7079 18.2832 19.0501 18.8437 19.4748 19.292C19.8996 19.7286 20.4011 20.059 20.9793 20.2832C21.5692 20.4956 22.2182 20.6018 22.9262 20.6018C23.6341 20.6018 24.2418 20.5192 24.7492 20.354C25.2683 20.1888 25.7167 20.0059 26.0943 19.8053C26.4837 19.6047 26.82 19.4218 27.1032 19.2566C27.3981 19.0914 27.6813 19.0088 27.9527 19.0088C28.3185 19.0088 28.5899 19.1445 28.7669 19.4159L30.0235 21.0088C29.5397 21.5752 28.997 22.0531 28.3952 22.4425C27.7934 22.8201 27.1621 23.1268 26.5014 23.3628C25.8524 23.587 25.1857 23.7463 24.5014 23.8407C23.8288 23.9351 23.1739 23.9823 22.5368 23.9823C21.2742 23.9823 20.1002 23.7758 19.0147 23.3628C17.9291 22.9381 16.9852 22.3186 16.1828 21.5044C15.3804 20.6785 14.7492 19.6637 14.289 18.4602C13.8288 17.2448 13.5987 15.8407 13.5987 14.2478C13.5987 13.0088 13.7993 11.8466 14.2005 10.7611C14.6017 9.66371 15.1739 8.71386 15.9173 7.9115C16.6725 7.09734 17.5869 6.45428 18.6607 5.9823C19.7462 5.51032 20.9675 5.27434 22.3244 5.27434C23.4689 5.27434 24.525 5.45723 25.4925 5.82301C26.4601 6.18879 27.2919 6.72566 27.9881 7.43363C28.6843 8.12979 29.227 8.99115 29.6164 10.0177C30.0176 11.0324 30.2182 12.1947 30.2182 13.5044C30.2182 14.1652 30.1474 14.6136 30.0058 14.8496C29.8642 15.0737 29.5928 15.1858 29.1916 15.1858H17.9527Z" fill="#1F1F33"/>
<path d="M43.0918 15.9646C41.8293 16.0236 40.7673 16.1357 39.906 16.3009C39.0446 16.4543 38.3544 16.6549 37.8352 16.9027C37.316 17.1504 36.9443 17.4395 36.7201 17.7699C36.4959 18.1003 36.3839 18.4602 36.3839 18.8496C36.3839 19.6165 36.608 20.1652 37.0564 20.4956C37.5166 20.826 38.1125 20.9911 38.844 20.9911C39.7408 20.9911 40.5136 20.8319 41.1626 20.5133C41.8234 20.1829 42.4664 19.6873 43.0918 19.0265V15.9646ZM33.0741 8.0885C35.1626 6.17699 37.6759 5.22124 40.6139 5.22124C41.6759 5.22124 42.6257 5.39823 43.4635 5.75221C44.3013 6.09439 45.0092 6.57817 45.5874 7.20354C46.1656 7.81711 46.6021 8.55457 46.8971 9.41593C47.2039 10.2773 47.3573 11.2212 47.3573 12.2478V23.7168H45.375C44.962 23.7168 44.6434 23.6578 44.4192 23.5398C44.1951 23.41 44.0181 23.1563 43.8883 22.7788L43.4989 21.469C43.0387 21.882 42.5903 22.2478 42.1538 22.5664C41.7172 22.8732 41.2629 23.1327 40.7909 23.3451C40.3189 23.5575 39.8116 23.7168 39.2688 23.823C38.7378 23.941 38.1479 24 37.4989 24C36.7319 24 36.024 23.8997 35.375 23.6991C34.726 23.4867 34.1656 23.174 33.6936 22.7611C33.2216 22.3481 32.8558 21.8348 32.5962 21.2212C32.3366 20.6077 32.2069 19.8938 32.2069 19.0796C32.2069 18.6195 32.2836 18.1652 32.4369 17.7168C32.5903 17.2566 32.8381 16.8201 33.1803 16.4071C33.5343 15.9941 33.9886 15.6047 34.5431 15.2389C35.0977 14.8732 35.7762 14.5546 36.5785 14.2832C37.3927 14.0118 38.3367 13.7935 39.4104 13.6283C40.4841 13.4513 41.7113 13.3451 43.0918 13.3097V12.2478C43.0918 11.0324 42.8322 10.1357 42.313 9.55752C41.7939 8.96755 41.0446 8.67257 40.0653 8.67257C39.3573 8.67257 38.7673 8.75516 38.2954 8.92035C37.8352 9.08555 37.4281 9.27434 37.0741 9.48673C36.7201 9.68731 36.3956 9.87021 36.1007 10.0354C35.8175 10.2006 35.4989 10.2832 35.1449 10.2832C34.8381 10.2832 34.5785 10.2065 34.3661 10.0531C34.1538 9.88791 33.9827 9.69911 33.8529 9.48673L33.0741 8.0885Z" fill="#1F1F33"/>
<path d="M51.4746 23.7168V5.55752H54.1471C54.7135 5.55752 55.0852 5.82301 55.2622 6.35398L55.5454 7.69911C55.8639 7.34513 56.1943 7.02065 56.5365 6.72566C56.8905 6.43068 57.2622 6.17699 57.6515 5.9646C58.0527 5.75221 58.4775 5.58702 58.9259 5.46903C59.3861 5.33923 59.8875 5.27434 60.4303 5.27434C61.5749 5.27434 62.5129 5.58702 63.2445 6.21239C63.9878 6.82596 64.5424 7.64602 64.9082 8.67257C65.1914 8.0708 65.5454 7.55752 65.9701 7.13274C66.3949 6.69616 66.861 6.34218 67.3684 6.0708C67.8757 5.79941 68.4126 5.59882 68.979 5.46903C69.5572 5.33923 70.1353 5.27434 70.7135 5.27434C71.7164 5.27434 72.6073 5.42773 73.3861 5.73451C74.1648 6.0413 74.8197 6.48967 75.3507 7.07965C75.8816 7.66962 76.2828 8.38938 76.5542 9.23894C76.8374 10.0885 76.979 11.0619 76.979 12.1593V23.7168H72.6073V12.1593C72.6073 11.0029 72.3536 10.1357 71.8462 9.55752C71.3389 8.96755 70.5955 8.67257 69.6161 8.67257C69.1678 8.67257 68.7489 8.74926 68.3595 8.90265C67.9819 9.05605 67.6456 9.28024 67.3507 9.57522C67.0675 9.85841 66.8433 10.2183 66.6781 10.6549C66.5129 11.0914 66.4303 11.5929 66.4303 12.1593V23.7168H62.0409V12.1593C62.0409 10.944 61.7931 10.059 61.2976 9.50442C60.8138 8.94985 60.0999 8.67257 59.156 8.67257C58.5188 8.67257 57.9229 8.83186 57.3684 9.15044C56.8256 9.45723 56.3182 9.882 55.8462 10.4248V23.7168H51.4746Z" fill="#1F1F33"/>
<path d="M80.4972 21.3097C80.4972 20.944 80.5621 20.5959 80.6919 20.2655C80.8335 19.9351 81.0223 19.6519 81.2583 19.4159C81.4943 19.1799 81.7775 18.9912 82.1079 18.8496C82.4382 18.708 82.7922 18.6372 83.1698 18.6372C83.5474 18.6372 83.8955 18.708 84.214 18.8496C84.5444 18.9912 84.8276 19.1799 85.0636 19.4159C85.3114 19.6519 85.5061 19.9351 85.6477 20.2655C85.7893 20.5959 85.8601 20.944 85.8601 21.3097C85.8601 21.6873 85.7893 22.0413 85.6477 22.3717C85.5061 22.6903 85.3114 22.9675 85.0636 23.2035C84.8276 23.4395 84.5444 23.6224 84.214 23.7522C83.8955 23.8938 83.5474 23.9646 83.1698 23.9646C82.7922 23.9646 82.4382 23.8938 82.1079 23.7522C81.7775 23.6224 81.4943 23.4395 81.2583 23.2035C81.0223 22.9675 80.8335 22.6903 80.6919 22.3717C80.5621 22.0413 80.4972 21.6873 80.4972 21.3097Z" fill="#1FCDCE"/>
</svg>
